HIERARCHY
ROOT Hips
{
	OFFSET 0.000000 0.000000 0.000000 
	CHANNELS 6 Xposition Yposition Zposition Zrotation Yrotation Xrotation
	JOINT LeftUpLeg
	{
		OFFSET 1.363060 -1.794630 0.839290 
		CHANNELS 3 Zrotation Yrotation Xrotation
		JOINT LeftLeg
		{
			OFFSET 2.448110 -6.726130 0.000000 
			CHANNELS 3 Zrotation Yrotation Xrotation
			JOINT LeftFoot
			{
				OFFSET 2.562200 -7.039590 0.000000 
				CHANNELS 3 Zrotation Yrotation Xrotation
				JOINT LeftToeBase
				{
					OFFSET 0.157640 -0.433110 2.322550 
					CHANNELS 3 Zrotation Yrotation Xrotation
					End Site
					{
						OFFSET 0.000000 0.000000 0.000000 
					}
				}
			}
		}
	}
	JOINT RightUpLeg
	{
		OFFSET -1.305520 -1.794630 0.839290 
		CHANNELS 3 Zrotation Yrotation Xrotation
		JOINT RightLeg
		{
			OFFSET -2.542530 -6.985550 0.000000 
			CHANNELS 3 Zrotation Yrotation Xrotation
			JOINT RightFoot
			{
				OFFSET -2.568260 -7.056230 0.000000 
				CHANNELS 3 Zrotation Yrotation Xrotation
				JOINT RightToeBase
				{
					OFFSET -0.164730 -0.452590 2.363150 
					CHANNELS 3 Zrotation Yrotation Xrotation
					End Site
					{
						OFFSET 0.000000 0.000000 0.000000 
					}
				}
			}
		}
	}
	JOINT Spine
	{
		OFFSET 0.028270 2.035590 -0.193380 
		CHANNELS 3 Zrotation Yrotation Xrotation
		JOINT Spine1
		{
			OFFSET 0.056720 2.048850 -0.042750 
			CHANNELS 3 Zrotation Yrotation Xrotation
			JOINT Neck1
			{
				OFFSET -0.054170 1.746240 0.172020 
				CHANNELS 3 Zrotation Yrotation Xrotation
				JOINT Head
				{
					OFFSET 0.104070 1.761360 -0.123970 
					CHANNELS 3 Zrotation Yrotation Xrotation
					End Site
					{
						OFFSET 0.000000 0.000000 0.000000 
					}
				}
			}
			JOINT LeftArm
			{
				OFFSET 3.362410 1.200890 -0.311210 
				CHANNELS 3 Zrotation Yrotation Xrotation
				JOINT LeftForeArm
				{
					OFFSET 4.983000 -0.000000 -0.000000 
					CHANNELS 3 Zrotation Yrotation Xrotation
					JOINT LeftHand
					{
						OFFSET 3.483560 -0.000000 -0.000000 
						CHANNELS 3 Zrotation Yrotation Xrotation
						JOINT LeftHandIndex1
						{
							OFFSET 0.715260 -0.000000 -0.000000 
							CHANNELS 3 Zrotation Yrotation Xrotation
							End Site
							{
								OFFSET 0.000000 0.000000 0.000000 
							}
						}
					}
				}
			}
			JOINT RightArm
			{
				OFFSET -3.136600 1.374050 -0.404650 
				CHANNELS 3 Zrotation Yrotation Xrotation
				JOINT RightForeArm
				{
					OFFSET -5.241900 -0.000000 -0.000000 
					CHANNELS 3 Zrotation Yrotation Xrotation
					JOINT RightHand
					{
						OFFSET -3.444170 -0.000000 -0.000000 
						CHANNELS 3 Zrotation Yrotation Xrotation
						JOINT RightHandIndex1
						{
							OFFSET -0.622530 -0.000000 -0.000000 
							CHANNELS 3 Zrotation Yrotation Xrotation
							End Site
							{
								OFFSET 0.000000 0.000000 0.000000 
							}
						}
					}
				}
			}
		}
	}
}
MOTION
Frames: 15
Frame Time: 0.041667
-0.824786 18.308690 5.859420 -1.251569 -1.594279 -0.844631 -12.752595 -10.761326 -3.557055 0.955168 6.885382 22.767091 -0.514074 5.955142 -13.866244 8.406400 -16.410100 -54.013500 19.622927 3.626572 9.147878 0.481857 1.031918 1.704797 0.122698 -6.216592 -16.759420 -0.159100 2.570200 -7.084300 -7.847588 2.058513 24.012397 -0.826749 1.300422 -13.681584 9.414467 -5.395488 25.172892 1.640900 -1.443000 8.535000 -95.162601 6.950842 20.851498 23.002557 -32.434058 -5.800666 0.596153 -0.127025 13.927712 -7.125000 0.000000 0.000000 97.724338 -11.583469 18.884279 -31.112945 39.502692 -8.589291 0.833419 -3.203940 20.209564 7.125000 0.000000 0.000000 
-0.824393 18.308984 5.855987 -1.278482 -1.583628 -0.855839 -12.737699 -10.853935 -3.518202 0.954149 6.889807 22.776074 -0.517009 5.986437 -13.925835 8.378600 -16.390800 -53.915300 19.650940 3.612667 9.150899 0.481888 1.031699 1.704760 0.126435 -6.226815 -16.741204 -0.160700 2.582700 -7.119100 -7.829708 2.044136 23.951602 -0.840497 1.291237 -13.698630 9.398278 -5.401629 25.237688 1.634800 -1.443900 8.546600 -95.164955 6.992112 20.762881 23.039741 -32.448407 -5.778877 0.562944 -0.131661 14.188956 -7.125000 0.000000 0.000000 97.697887 -11.583633 18.922260 -31.057039 39.437148 -8.549436 0.823395 -3.197115 20.272701 7.125000 0.000000 0.000000 
-0.830769 18.312417 5.841765 -1.253252 -1.362081 -0.706593 -12.666617 -10.755850 -3.797304 0.962381 6.891670 22.760565 -0.482209 5.741706 -13.595044 8.384300 -16.394700 -53.935300 19.655743 3.442318 8.951793 0.481229 1.027078 1.703201 0.128045 -6.222539 -16.712758 -0.152200 2.514000 -6.928500 -7.830209 1.914165 23.571270 -0.722110 1.249459 -13.732980 9.187431 -5.364561 25.374517 1.582000 -1.440300 8.553100 -95.140675 7.024544 20.684800 23.047965 -32.419350 -5.760233 0.545110 -0.135273 14.316273 -7.125000 0.000000 0.000000 97.611916 -11.577383 19.013922 -30.985824 39.353580 -8.510817 0.814757 -3.194480 20.265460 7.125000 0.000000 0.000000 
-0.848228 18.321833 5.807534 -1.200237 -0.775775 -0.179305 -12.450063 -10.315620 -4.774356 0.991931 6.913359 22.756542 -0.393521 5.073582 -12.590104 8.446700 -16.438200 -54.156300 19.687010 3.025977 8.309333 0.480471 1.012765 1.698020 0.127637 -6.225680 -16.707487 -0.134600 2.364500 -6.514100 -7.742612 1.585172 22.463587 -0.467755 1.151430 -13.732216 9.042880 -5.346432 25.677342 1.550000 -1.435400 8.566900 -95.060636 7.090040 20.641917 23.052224 -32.352928 -5.751970 0.543273 -0.137971 14.304934 -7.125000 0.000000 0.000000 97.502488 -11.686933 19.011574 -31.022865 39.333498 -8.530430 0.812764 -3.192066 20.279116 7.125000 0.000000 0.000000 
-0.848326 18.322324 5.804297 -1.216969 -0.779873 -0.174137 -12.432630 -10.250716 -4.815045 0.992946 6.914236 22.756489 -0.399396 5.079178 -12.528734 8.464500 -16.450500 -54.219200 19.701466 3.033228 8.298727 0.480631 1.012087 1.697849 0.124928 -6.222769 -16.726719 -0.129300 2.317700 -6.384500 -7.686291 1.585093 22.413095 -0.488452 1.153549 -13.739368 9.087226 -5.376918 25.725450 1.558500 -1.443200 8.578200 -95.053478 7.102227 20.672333 23.068638 -32.368995 -5.759065 0.542256 -0.140104 14.329333 -7.125000 0.000000 0.000000 97.533174 -11.755062 18.913554 -31.101344 39.398822 -8.570558 0.816366 -3.191449 20.383544 7.125000 0.000000 0.000000 
-0.847443 18.322422 5.801061 -1.261304 -0.803454 -0.211521 -12.404226 -10.228989 -4.779609 0.991750 6.913151 22.753276 -0.404525 5.103971 -12.541857 8.469300 -16.453800 -54.236000 19.738522 3.044021 8.334020 0.480233 1.012150 1.698119 0.123371 -6.207201 -16.714076 -0.127000 2.297300 -6.328100 -7.570709 1.588962 22.395606 -0.544969 1.154557 -13.786202 9.080912 -5.409742 25.776667 1.553100 -1.457100 8.591200 -95.031980 7.125602 20.740193 23.090877 -32.393774 -5.768217 0.540623 -0.140496 14.357281 -7.125000 0.000000 0.000000 97.549604 -11.777939 18.809369 -31.119279 39.412159 -8.578890 0.820803 -3.190789 20.478714 7.125000 0.000000 0.000000 
-0.828317 18.312712 5.833134 -1.325686 -1.447645 -0.801811 -12.646365 -10.654395 -3.750917 0.961827 6.886471 22.759363 -0.511506 5.847075 -13.563722 8.420600 -16.420100 -54.063900 19.689925 3.511646 9.023418 0.480594 1.027129 1.703155 0.125524 -6.203410 -16.702820 -0.148700 2.484700 -6.847300 -7.474330 1.908627 23.698360 -0.816559 1.258197 -13.783927 9.042203 -5.397708 25.510745 1.542400 -1.463000 8.598500 -95.136854 6.999430 20.804787 23.083866 -32.460766 -5.774502 0.540759 -0.140107 14.327582 -7.125000 0.000000 0.000000 97.617209 -11.640949 18.842799 -31.093443 39.454588 -8.575241 0.822815 -3.198002 20.479407 7.125000 0.000000 0.000000 
-0.824687 18.310358 5.837842 -1.342051 -1.588262 -0.956114 -12.718734 -10.798960 -3.481683 0.952398 6.876842 22.752945 -0.540504 6.043336 -13.821321 8.414800 -16.416000 -54.043400 19.672801 3.609551 9.190455 0.481347 1.030140 1.703900 0.136858 -6.257168 -16.694231 -0.170300 2.658500 -7.329300 -7.364129 1.948367 23.985334 -0.887133 1.271807 -13.789128 9.090031 -5.396944 25.462029 1.559900 -1.461600 8.604100 -95.174559 6.997876 20.830577 23.121524 -32.516412 -5.791388 0.539461 -0.135837 14.256205 -7.125000 0.000000 0.000000 97.591082 -11.605611 18.925893 -31.071956 39.449981 -8.572427 0.821208 -3.202445 20.418718 7.125000 0.000000 0.000000 
-0.825766 18.310946 5.831957 -1.321099 -1.573083 -0.978846 -12.732685 -10.827209 -3.457643 0.949430 6.871103 22.735256 -0.535192 6.027305 -13.837748 8.387600 -16.397000 -53.946900 19.656511 3.591718 9.194952 0.481766 1.030461 1.703845 0.146396 -6.298009 -16.676542 -0.177900 2.716800 -7.491200 -7.402039 1.941079 23.979859 -0.876553 1.266934 -13.818553 9.177400 -5.407808 25.464906 1.583200 -1.458400 8.609400 -95.153717 7.012617 20.912301 23.157763 -32.555222 -5.806459 0.539530 -0.130897 14.170653 -7.125000 0.000000 0.000000 97.556541 -11.574189 18.995911 -31.057798 39.442715 -8.571509 0.824361 -3.205734 20.344700 7.125000 0.000000 0.000000 
-0.830278 18.313889 5.818618 -1.247393 -1.413671 -0.861053 -12.720015 -10.723920 -3.685076 0.952862 6.871885 22.715093 -0.519665 5.885183 -13.579376 8.383800 -16.394400 -53.933500 19.619374 3.472589 9.036005 0.481242 1.027192 1.702914 0.142885 -6.278472 -16.672242 -0.165800 2.623000 -7.230800 -7.575903 1.894165 23.651019 -0.770650 1.251864 -13.844839 9.198357 -5.403381 25.454745 1.587800 -1.455600 8.586000 -95.107073 7.027282 20.964439 23.164871 -32.545061 -5.805559 0.538284 -0.129985 14.158261 -7.125000 0.000000 0.000000 97.516443 -11.584045 19.029208 -31.059014 39.433212 -8.574744 0.827403 -3.206586 20.271732 7.125000 0.000000 0.000000 
-0.846168 18.322324 5.785465 -1.158543 -0.851448 -0.355260 -12.539946 -10.356445 -4.577158 0.975566 6.891053 22.695442 -0.438270 5.282674 -12.678261 8.453700 -16.443000 -54.181000 19.634771 3.065170 8.431036 0.480289 1.013518 1.698364 0.138456 -6.258177 -16.663209 -0.149300 2.489800 -6.861500 -7.713778 1.626724 22.458825 -0.508627 1.168860 -13.844428 9.143526 -5.394264 25.592170 1.574900 -1.455100 8.546700 -95.005472 7.110667 20.943862 23.156630 -32.467458 -5.791167 0.536182 -0.132009 14.191259 -7.125000 0.000000 0.000000 97.422111 -11.714352 19.036458 -31.102525 39.411774 -8.591605 0.830941 -3.202040 20.177636 7.125000 0.000000 0.000000 
-0.829297 18.312221 5.813713 -1.183479 -1.411351 -0.945350 -12.781843 -10.720070 -3.597599 0.951037 6.862391 22.695018 -0.504529 5.833871 -13.609206 8.395000 -16.402300 -53.973400 19.562193 3.452456 9.101916 0.480762 1.028144 1.703588 0.141543 -6.263492 -16.659194 -0.161100 2.586200 -7.128800 -7.692867 1.924549 23.707794 -0.713385 1.266641 -13.856824 9.002294 -5.335116 25.242456 1.539900 -1.451900 8.521400 -95.127930 6.975619 20.958443 23.114502 -32.493037 -5.780202 0.534356 -0.134726 14.192497 -7.125000 0.000000 0.000000 97.477485 -11.611765 19.122862 -31.131388 39.498249 -8.608513 0.838483 -3.205694 20.119988 7.125000 0.000000 0.000000 
-0.822726 18.308886 5.823031 -1.196328 -1.633157 -1.134220 -12.881131 -10.862609 -3.258163 0.939689 6.850067 22.688562 -0.538803 6.075935 -13.943168 8.356600 -16.375300 -53.837000 19.533112 3.623712 9.317008 0.481185 1.032429 1.704710 0.145942 -6.282949 -16.657975 -0.164400 2.612600 -7.202100 -7.629417 2.029214 24.144690 -0.785525 1.306122 -13.827532 8.859166 -5.287120 25.146293 1.503700 -1.443700 8.522600 -95.195464 6.952083 20.942029 23.129820 -32.528230 -5.783715 0.529414 -0.132249 14.190981 -7.125000 0.000000 0.000000 97.497957 -11.534063 19.113906 -31.102130 39.496828 -8.595217 0.836982 -3.207150 20.167387 7.125000 0.000000 0.000000 
-0.823020 18.308886 5.820873 -1.193217 -1.649459 -1.149179 -12.868715 -10.869252 -3.256410 0.938448 6.849462 22.683631 -0.544304 6.096689 -13.939701 8.351700 -16.371900 -53.819700 19.546817 3.635630 9.328602 0.481253 1.034495 1.705603 0.141916 -6.265083 -16.665153 -0.164200 2.610300 -7.195700 -7.800802 2.063563 24.232311 -0.787468 1.305574 -13.798116 8.940410 -5.287207 25.111268 1.515200 -1.431600 8.528500 -95.149403 6.947345 20.987186 23.157789 -32.561435 -5.796228 0.531610 -0.124359 14.149597 -7.125000 0.000000 0.000000 97.558404 -11.453405 19.099383 -31.072893 39.492002 -8.585157 0.834816 -3.209963 20.175520 7.125000 0.000000 0.000000 
-0.822235 18.308396 5.820089 -1.198457 -1.680227 -1.236734 -12.880693 -10.905578 -3.157459 0.937793 6.846993 22.686054 -0.545005 6.120049 -14.006080 8.344000 -16.366500 -53.792300 19.547325 3.643758 9.408003 0.481100 1.037500 1.706997 0.140067 -6.253129 -16.663761 -0.162700 2.598900 -7.164100 -7.848876 2.083281 24.436622 -0.813665 1.302966 -13.792835 8.992432 -5.275778 24.983425 1.525900 -1.424600 8.510200 -95.124495 6.905837 21.022220 23.153837 -32.568832 -5.797941 0.534059 -0.122720 14.132791 -7.125000 0.000000 0.000000 97.586497 -11.409352 19.149797 -31.089633 39.525888 -8.597502 0.832573 -3.211452 20.144483 7.125000 0.000000 0.000000 
